<mxfile host="Electron" agent="Mozilla/5.0 (X11; Linux x86_64) AppleWebKit/537.36 (KHTML, like Gecko) draw.io/24.7.5 Chrome/126.0.6478.183 Electron/31.3.0 Safari/537.36" version="24.7.5">
  <diagram name="Page-1" id="scS7A2CzRNvH8kC6-fz3">
    <mxGraphModel dx="1114" dy="1027" grid="1" gridSize="10" guides="1" tooltips="1" connect="1" arrows="1" fold="1" page="1" pageScale="1" pageWidth="850" pageHeight="1100" math="0" shadow="0">
      <root>
        <mxCell id="0" />
        <mxCell id="1" parent="0" />
        <mxCell id="GPp1BuTWeMw-vM4O6Qg8-9" value="" style="group" parent="1" vertex="1" connectable="0">
          <mxGeometry x="460" y="240" width="150" height="110" as="geometry" />
        </mxCell>
        <mxCell id="GPp1BuTWeMw-vM4O6Qg8-6" value="&lt;div&gt;&lt;font color=&quot;#000000&quot; face=&quot;Lucida Console, Courier, monospace&quot;&gt;100111011101100111011110&lt;/font&gt;&lt;/div&gt;&lt;div&gt;&lt;font color=&quot;#000000&quot; face=&quot;Lucida Console, Courier, monospace&quot;&gt;011001011000010101000011&lt;/font&gt;&lt;/div&gt;&lt;div&gt;&lt;font color=&quot;#000000&quot; face=&quot;Lucida Console, Courier, monospace&quot;&gt;111010111110010000110001&lt;/font&gt;&lt;/div&gt;&lt;div&gt;&lt;font color=&quot;#000000&quot; face=&quot;Lucida Console, Courier, monospace&quot;&gt;100011011100111100001101&lt;/font&gt;&lt;/div&gt;&lt;div&gt;&lt;font color=&quot;#000000&quot; face=&quot;Lucida Console, Courier, monospace&quot;&gt;011010000100011100010100&lt;/font&gt;&lt;/div&gt;&lt;div&gt;&lt;font color=&quot;#000000&quot; face=&quot;Lucida Console, Courier, monospace&quot;&gt;110111010010011010101100&lt;/font&gt;&lt;/div&gt;" style="text;html=1;align=center;verticalAlign=middle;whiteSpace=wrap;rounded=0;fillColor=none;fontColor=#333333;strokeColor=#000000;fontFamily=Lucida Console;fontSize=9;perimeterSpacing=0;labelPadding=9;spacingLeft=0;" parent="GPp1BuTWeMw-vM4O6Qg8-9" vertex="1">
          <mxGeometry y="30" width="150" height="80" as="geometry" />
        </mxCell>
        <mxCell id="GPp1BuTWeMw-vM4O6Qg8-7" value="&lt;i&gt;machine code&lt;/i&gt;" style="text;html=1;strokeColor=none;fillColor=none;align=center;verticalAlign=middle;whiteSpace=wrap;rounded=0;" parent="GPp1BuTWeMw-vM4O6Qg8-9" vertex="1">
          <mxGeometry x="27.5" width="95" height="30" as="geometry" />
        </mxCell>
        <mxCell id="GPp1BuTWeMw-vM4O6Qg8-10" value="translator" style="endArrow=block;html=1;rounded=0;exitX=1;exitY=0.5;exitDx=0;exitDy=0;entryX=0;entryY=0.5;entryDx=0;entryDy=0;dashed=1;endFill=0;" parent="1" source="GPp1BuTWeMw-vM4O6Qg8-4" target="GPp1BuTWeMw-vM4O6Qg8-6" edge="1">
          <mxGeometry y="10" width="50" height="50" relative="1" as="geometry">
            <mxPoint x="430" y="340" as="sourcePoint" />
            <mxPoint x="480" y="290" as="targetPoint" />
            <mxPoint as="offset" />
          </mxGeometry>
        </mxCell>
        <mxCell id="GPp1BuTWeMw-vM4O6Qg8-4" value="&lt;span style=&quot;box-sizing: border-box; font-family: &amp;quot;Lucida Console&amp;quot;, Courier, monospace; font-size: 9px; color: rgb(163, 21, 21);&quot;&gt;int&lt;/span&gt;&lt;span style=&quot;color: rgb(0, 0, 0); font-family: &amp;quot;Lucida Console&amp;quot;, Courier, monospace; font-size: 9px; background-color: rgb(255, 255, 255);&quot;&gt;&amp;nbsp;a = 1&lt;/span&gt;;&lt;br&gt;&lt;span style=&quot;border-color: var(--border-color); box-sizing: border-box; font-family: &amp;quot;Lucida Console&amp;quot;, Courier, monospace; color: rgb(163, 21, 21);&quot;&gt;int&lt;/span&gt;&lt;span style=&quot;border-color: var(--border-color); color: rgb(0, 0, 0); font-family: &amp;quot;Lucida Console&amp;quot;, Courier, monospace; background-color: rgb(255, 255, 255);&quot;&gt;&amp;nbsp;b =&amp;nbsp;&lt;/span&gt;&lt;span style=&quot;border-color: var(--border-color); box-sizing: border-box; color: rgb(0, 0, 0); font-family: &amp;quot;Lucida Console&amp;quot;, Courier, monospace;&quot;&gt;0&lt;/span&gt;&lt;span style=&quot;border-color: var(--border-color); color: rgb(0, 0, 0); font-family: &amp;quot;Lucida Console&amp;quot;, Courier, monospace; background-color: rgb(255, 255, 255);&quot;&gt;;&lt;/span&gt;&lt;span style=&quot;color: rgb(0, 0, 0); font-family: &amp;quot;Lucida Console&amp;quot;, Courier, monospace; font-size: 9px; background-color: rgb(255, 255, 255);&quot;&gt;&lt;br style=&quot;font-size: 9px;&quot;&gt;&lt;/span&gt;&lt;span style=&quot;box-sizing: border-box; font-family: &amp;quot;Lucida Console&amp;quot;, Courier, monospace; font-size: 9px; color: rgb(163, 21, 21);&quot;&gt;int&lt;/span&gt;&lt;span style=&quot;color: rgb(0, 0, 0); font-family: &amp;quot;Lucida Console&amp;quot;, Courier, monospace; font-size: 9px; background-color: rgb(255, 255, 255);&quot;&gt; max = a &amp;gt; b ? a : b;&lt;br style=&quot;font-size: 9px;&quot;&gt;...&lt;/span&gt;" style="text;html=1;align=left;verticalAlign=middle;whiteSpace=wrap;rounded=0;fillColor=none;fontColor=#333333;strokeColor=#000000;fontFamily=Lucida Console;fontSize=9;perimeterSpacing=0;labelPadding=9;spacingLeft=2;" parent="1" vertex="1">
          <mxGeometry x="220" y="280" width="140" height="60" as="geometry" />
        </mxCell>
        <mxCell id="GPp1BuTWeMw-vM4O6Qg8-5" value="&lt;i&gt;source code&lt;/i&gt;" style="text;html=1;strokeColor=none;fillColor=none;align=center;verticalAlign=middle;whiteSpace=wrap;rounded=0;" parent="1" vertex="1">
          <mxGeometry x="255" y="250" width="75" height="30" as="geometry" />
        </mxCell>
      </root>
    </mxGraphModel>
  </diagram>
</mxfile>
